<mxfile host="app.diagrams.net" agent="Mozilla/5.0 (Windows NT 10.0; Win64; x64) AppleWebKit/537.36 (KHTML, like Gecko) Chrome/126.0.0.0 Safari/537.36 AVG/126.0.0.0" version="24.7.7">
  <diagram name="Page-1" id="jC9QU2Pb6PeztLgpICCN">
    <mxGraphModel dx="993" dy="525" grid="1" gridSize="10" guides="1" tooltips="1" connect="1" arrows="1" fold="1" page="1" pageScale="1" pageWidth="850" pageHeight="1100" math="0" shadow="0">
      <root>
        <mxCell id="0" />
        <mxCell id="1" parent="0" />
        <mxCell id="ODy3n680bHS0tX1lZsI_-1" value="Switch" style="rounded=0;whiteSpace=wrap;html=1;" vertex="1" parent="1">
          <mxGeometry x="365" y="171" width="105" height="30" as="geometry" />
        </mxCell>
        <mxCell id="ODy3n680bHS0tX1lZsI_-2" value="Router" style="ellipse;whiteSpace=wrap;html=1;aspect=fixed;" vertex="1" parent="1">
          <mxGeometry x="382" y="50" width="70" height="70" as="geometry" />
        </mxCell>
        <mxCell id="ODy3n680bHS0tX1lZsI_-3" value="PC1" style="whiteSpace=wrap;html=1;aspect=fixed;" vertex="1" parent="1">
          <mxGeometry x="220" y="300" width="60" height="60" as="geometry" />
        </mxCell>
        <mxCell id="ODy3n680bHS0tX1lZsI_-4" value="PC2" style="whiteSpace=wrap;html=1;aspect=fixed;" vertex="1" parent="1">
          <mxGeometry x="315" y="300" width="60" height="60" as="geometry" />
        </mxCell>
        <mxCell id="ODy3n680bHS0tX1lZsI_-5" value="PC3" style="whiteSpace=wrap;html=1;aspect=fixed;" vertex="1" parent="1">
          <mxGeometry x="433" y="300" width="60" height="60" as="geometry" />
        </mxCell>
        <mxCell id="ODy3n680bHS0tX1lZsI_-6" value="PC4" style="whiteSpace=wrap;html=1;aspect=fixed;" vertex="1" parent="1">
          <mxGeometry x="537" y="300" width="60" height="60" as="geometry" />
        </mxCell>
        <mxCell id="ODy3n680bHS0tX1lZsI_-7" value="" style="endArrow=none;html=1;rounded=0;exitX=0.5;exitY=0;exitDx=0;exitDy=0;entryX=0.382;entryY=0.978;entryDx=0;entryDy=0;entryPerimeter=0;" edge="1" parent="1" source="ODy3n680bHS0tX1lZsI_-3" target="ODy3n680bHS0tX1lZsI_-1">
          <mxGeometry width="50" height="50" relative="1" as="geometry">
            <mxPoint x="380" y="250" as="sourcePoint" />
            <mxPoint x="430" y="200" as="targetPoint" />
          </mxGeometry>
        </mxCell>
        <mxCell id="ODy3n680bHS0tX1lZsI_-8" value="" style="endArrow=none;html=1;rounded=0;exitX=0.481;exitY=-0.068;exitDx=0;exitDy=0;entryX=0.474;entryY=0.871;entryDx=0;entryDy=0;entryPerimeter=0;exitPerimeter=0;" edge="1" parent="1">
          <mxGeometry width="50" height="50" relative="1" as="geometry">
            <mxPoint x="343.8599999999999" y="299.91999999999996" as="sourcePoint" />
            <mxPoint x="414.76999999999987" y="201.13000000000005" as="targetPoint" />
          </mxGeometry>
        </mxCell>
        <mxCell id="ODy3n680bHS0tX1lZsI_-9" value="" style="endArrow=none;html=1;rounded=0;exitX=0.51;exitY=-0.058;exitDx=0;exitDy=0;exitPerimeter=0;" edge="1" parent="1" target="ODy3n680bHS0tX1lZsI_-1">
          <mxGeometry width="50" height="50" relative="1" as="geometry">
            <mxPoint x="463.6" y="299.52" as="sourcePoint" />
            <mxPoint x="422.7499999999999" y="202.17000000000002" as="targetPoint" />
          </mxGeometry>
        </mxCell>
        <mxCell id="ODy3n680bHS0tX1lZsI_-10" value="" style="endArrow=none;html=1;rounded=0;exitX=0.634;exitY=-0.004;exitDx=0;exitDy=0;exitPerimeter=0;" edge="1" parent="1" source="ODy3n680bHS0tX1lZsI_-6" target="ODy3n680bHS0tX1lZsI_-1">
          <mxGeometry width="50" height="50" relative="1" as="geometry">
            <mxPoint x="363.8599999999999" y="319.91999999999996" as="sourcePoint" />
            <mxPoint x="434.76999999999987" y="221.13000000000005" as="targetPoint" />
          </mxGeometry>
        </mxCell>
        <mxCell id="ODy3n680bHS0tX1lZsI_-11" value="" style="endArrow=none;html=1;rounded=0;exitX=0.5;exitY=0;exitDx=0;exitDy=0;entryX=0.5;entryY=1;entryDx=0;entryDy=0;" edge="1" parent="1" source="ODy3n680bHS0tX1lZsI_-1" target="ODy3n680bHS0tX1lZsI_-2">
          <mxGeometry width="50" height="50" relative="1" as="geometry">
            <mxPoint x="380" y="160" as="sourcePoint" />
            <mxPoint x="430" y="110" as="targetPoint" />
          </mxGeometry>
        </mxCell>
        <mxCell id="ODy3n680bHS0tX1lZsI_-12" value="Created on 14 August 2024 by&lt;div&gt;Sohel Rana&lt;/div&gt;" style="text;html=1;align=center;verticalAlign=middle;resizable=0;points=[];autosize=1;strokeColor=none;fillColor=none;" vertex="1" parent="1">
          <mxGeometry x="315" y="450" width="190" height="40" as="geometry" />
        </mxCell>
      </root>
    </mxGraphModel>
  </diagram>
</mxfile>
